<svg xmlns="http://www.w3.org/2000/svg" xmlns:xlink="http://www.w3.org/1999/xlink" width="2000" zoomAndPan="magnify" viewBox="0 0 1500 1499.999933" height="2000" preserveAspectRatio="xMidYMid meet" version="1.0"><defs><g/><clipPath id="4524e8fa01"><rect x="0" width="950" y="0" height="1500"/></clipPath><clipPath id="c94aa87d38"><rect x="0" width="834" y="0" height="1500"/></clipPath></defs><g transform="matrix(1, 0, 0, 1, 144, 0.000000000000112861)"><g clip-path="url(#4524e8fa01)"><g fill="#ffffff" fill-opacity="1"><g transform="translate(0.349826, 967.23491)"><g><path d="M 10.84375 -759.09375 L 414.25 -759.09375 L 414.25 -748.25 C 372.320312 -748.25 342.140625 -744.09375 323.703125 -735.78125 C 305.265625 -727.46875 296.046875 -715.71875 296.046875 -700.53125 C 296.046875 -688.96875 301.109375 -675.234375 311.234375 -659.328125 L 535.703125 -297.125 L 746.078125 -634.390625 C 759.097656 -656.078125 765.609375 -674.875 765.609375 -690.78125 C 765.609375 -709.570312 755.664062 -723.847656 735.78125 -733.609375 C 715.894531 -743.367188 683.90625 -748.25 639.8125 -748.25 L 639.8125 -759.09375 L 932.609375 -759.09375 L 932.609375 -748.25 C 900.066406 -748.25 874.757812 -745.71875 856.6875 -740.65625 C 838.613281 -735.59375 823.429688 -726.191406 811.140625 -712.453125 C 798.859375 -698.722656 785.125 -679.207031 769.9375 -653.90625 L 531.359375 -271.109375 L 531.359375 -109.53125 C 531.359375 -80.613281 533.523438 -59.101562 537.859375 -45 C 542.203125 -30.90625 551.601562 -21.6875 566.0625 -17.34375 C 580.519531 -13.007812 602.210938 -10.84375 631.140625 -10.84375 L 631.140625 0 L 310.140625 0 L 310.140625 -10.84375 C 339.785156 -10.84375 361.65625 -13.007812 375.75 -17.34375 C 389.84375 -21.6875 399.054688 -30.90625 403.390625 -45 C 407.734375 -59.101562 409.90625 -80.613281 409.90625 -109.53125 L 409.90625 -271.109375 L 160.5 -674.515625 C 149.65625 -692.585938 138.445312 -706.863281 126.875 -717.34375 C 115.3125 -727.820312 100.492188 -735.59375 82.421875 -740.65625 C 64.347656 -745.71875 40.488281 -748.25 10.84375 -748.25 Z M 10.84375 -759.09375 "/></g></g></g></g></g><g transform="matrix(1, 0, 0, 1, 499, 0.000000000000112861)"><g clip-path="url(#c94aa87d38)"><g fill="#ffffff" fill-opacity="1"><g transform="translate(0.69833, 1299.104287)"><g><path d="M 444.609375 -769.9375 C 495.941406 -769.9375 543.113281 -764.515625 586.125 -753.671875 C 629.144531 -742.828125 663.664062 -726.019531 689.6875 -703.25 C 715.71875 -680.476562 728.734375 -651.378906 728.734375 -615.953125 C 728.734375 -596.429688 722.769531 -580.707031 710.84375 -568.78125 C 698.914062 -556.851562 683.191406 -550.890625 663.671875 -550.890625 C 644.148438 -550.890625 628.421875 -556.851562 616.484375 -568.78125 C 604.554688 -580.707031 598.59375 -596.429688 598.59375 -615.953125 C 598.59375 -633.304688 604.554688 -648.488281 616.484375 -661.5 C 628.421875 -674.507812 644.148438 -681.015625 663.671875 -681.015625 C 682.460938 -681.015625 697.644531 -673.425781 709.21875 -658.25 C 699.09375 -682.101562 681.015625 -701.4375 654.984375 -716.25 C 628.960938 -731.070312 597.878906 -741.914062 561.734375 -748.78125 C 525.585938 -755.65625 486.546875 -759.09375 444.609375 -759.09375 C 371.597656 -759.09375 313.941406 -749.148438 271.640625 -729.265625 C 229.347656 -709.390625 208.203125 -673.785156 208.203125 -622.453125 C 208.203125 -589.921875 217.597656 -562.628906 236.390625 -540.578125 C 255.191406 -518.535156 283.75 -499.195312 322.0625 -482.5625 C 360.382812 -465.9375 409.1875 -449.3125 468.46875 -432.6875 C 545.101562 -412.445312 604.925781 -391.117188 647.9375 -368.703125 C 690.957031 -346.296875 721.320312 -320.8125 739.03125 -292.25 C 756.75 -263.695312 765.609375 -229.175781 765.609375 -188.6875 C 765.609375 -156.15625 758.375 -127.414062 743.90625 -102.46875 C 729.445312 -77.53125 706.316406 -56.75 674.515625 -40.125 C 644.148438 -24.21875 605.46875 -11.742188 558.46875 -2.703125 C 511.476562 6.328125 454.726562 10.84375 388.21875 10.84375 C 325.320312 10.84375 270.015625 4.335938 222.296875 -8.671875 C 174.585938 -21.679688 137.175781 -41.378906 110.0625 -67.765625 C 82.957031 -94.160156 69.40625 -127.238281 69.40625 -167 C 69.40625 -186.519531 75.367188 -202.0625 87.296875 -213.625 C 99.222656 -225.195312 114.945312 -230.984375 134.46875 -230.984375 C 151.09375 -230.984375 166.09375 -225.921875 179.46875 -215.796875 C 192.84375 -205.679688 199.53125 -189.414062 199.53125 -167 C 199.53125 -144.59375 192.84375 -127.960938 179.46875 -117.109375 C 166.09375 -106.265625 151.09375 -100.84375 134.46875 -100.84375 C 114.945312 -100.84375 99.40625 -107.710938 87.84375 -121.453125 C 103.019531 -80.972656 137.175781 -50.609375 190.3125 -30.359375 C 243.445312 -10.117188 309.414062 0 388.21875 0 C 564.625 0 652.828125 -46.988281 652.828125 -140.96875 C 652.828125 -169.894531 645.773438 -194.65625 631.671875 -215.25 C 617.578125 -235.851562 591.734375 -254.832031 554.140625 -272.1875 C 516.546875 -289.539062 462.6875 -307.613281 392.5625 -326.40625 C 323.15625 -345.207031 266.765625 -365.453125 223.390625 -387.140625 C 180.015625 -408.828125 148.203125 -434.671875 127.953125 -464.671875 C 107.710938 -494.671875 97.59375 -531.363281 97.59375 -574.75 C 97.59375 -604.382812 103.015625 -631.128906 113.859375 -654.984375 C 124.703125 -678.847656 143.140625 -698.734375 169.171875 -714.640625 C 225.554688 -751.503906 317.367188 -769.9375 444.609375 -769.9375 Z M 444.609375 -769.9375 "/></g></g></g></g></g></svg>