<svg xmlns="http://www.w3.org/2000/svg" xmlns:xlink="http://www.w3.org/1999/xlink" width="500" zoomAndPan="magnify" viewBox="0 0 375 374.999991" height="500" preserveAspectRatio="xMidYMid meet" version="1.0"><defs><clipPath id="f8bf794dac"><path d="M 67.480469 37.5 L 307.480469 37.5 L 307.480469 270.75 L 67.480469 270.75 Z M 67.480469 37.5 " clip-rule="nonzero"/></clipPath></defs><g clip-path="url(#f8bf794dac)"><path fill="#d2e0f4" d="M 307.324219 270.539062 L 106.328125 69.539062 L 223.394531 69.539062 C 237.621094 69.539062 250.609375 75.363281 260.011719 84.765625 C 269.414062 94.167969 275.234375 107.152344 275.234375 121.382812 C 275.234375 135.609375 269.414062 148.597656 260.011719 158 C 255.332031 162.675781 249.8125 166.457031 243.691406 169.09375 L 267.375 192.777344 C 272.945312 189.34375 278.070312 185.265625 282.699219 180.636719 C 297.921875 165.414062 307.324219 144.46875 307.324219 121.332031 C 307.324219 98.246094 297.871094 77.253906 282.699219 62.027344 C 267.472656 46.953125 246.527344 37.5 223.394531 37.5 L 67.667969 37.5 L 67.667969 270.539062 L 95.230469 270.539062 L 113.589844 252.128906 L 157.519531 208.199219 L 178.566406 187.15625 L 261.949219 270.539062 Z M 162.546875 232.230469 L 175.480469 232.230469 L 175.480469 245.164062 L 162.546875 245.164062 Z M 175.480469 251.535156 L 175.480469 264.46875 L 162.546875 264.46875 L 162.546875 251.535156 Z M 181.800781 251.535156 L 194.734375 251.535156 L 194.734375 264.46875 L 181.800781 264.46875 Z M 181.800781 245.164062 L 181.800781 232.230469 L 194.734375 232.230469 L 194.734375 245.164062 Z M 99.710938 200.738281 L 121.800781 200.738281 L 121.800781 224.269531 L 99.710938 246.359375 Z M 99.710938 200.738281 " fill-opacity="1" fill-rule="evenodd"/></g><path fill="#d2e0f4" d="M 29.8125 333.660156 L 22.5 322.628906 L 17.9375 322.628906 L 17.9375 333.660156 L 11.109375 333.660156 L 11.109375 298.972656 L 21.609375 298.972656 C 25.910156 298.972656 29.25 300.019531 31.625 302.113281 C 34 304.199219 35.1875 307.046875 35.1875 310.660156 C 35.1875 312.796875 34.738281 314.800781 33.84375 316.675781 C 32.945312 318.542969 31.570312 320.011719 29.71875 321.082031 L 37.78125 333.660156 Z M 17.9375 316.035156 L 22.78125 316.035156 C 24.632812 316.035156 25.984375 315.496094 26.828125 314.410156 C 27.679688 313.328125 28.109375 312.15625 28.109375 310.894531 C 28.109375 309.644531 27.75 308.449219 27.03125 307.300781 C 26.3125 306.144531 24.914062 305.566406 22.84375 305.566406 L 17.9375 305.566406 Z M 17.9375 316.035156 " fill-opacity="1" fill-rule="nonzero"/><path fill="#d2e0f4" d="M 71.804688 298.972656 L 71.804688 305.566406 L 54.976562 305.566406 L 54.976562 312.972656 L 69.867188 312.972656 L 69.867188 319.566406 L 54.976562 319.566406 L 54.976562 327.066406 L 72.460938 327.066406 L 72.460938 333.660156 L 48.148438 333.660156 L 48.148438 298.972656 Z M 71.804688 298.972656 " fill-opacity="1" fill-rule="nonzero"/><path fill="#d2e0f4" d="M 101.386719 326.878906 L 89.886719 326.878906 L 87.058594 333.660156 L 80.324219 333.660156 L 95.980469 297.613281 L 96.355469 297.613281 L 111.996094 333.660156 L 104.074219 333.660156 Z M 99.136719 321.128906 L 95.777344 312.691406 L 92.292969 321.128906 Z M 99.136719 321.128906 " fill-opacity="1" fill-rule="nonzero"/><path fill="#d2e0f4" d="M 128.585938 298.972656 L 128.585938 327.066406 L 144.882812 327.066406 L 144.882812 333.660156 L 121.757812 333.660156 L 121.757812 298.972656 Z M 128.585938 298.972656 " fill-opacity="1" fill-rule="nonzero"/><path fill="#d2e0f4" d="M 183.53125 298.972656 L 183.53125 327.066406 L 199.828125 327.066406 L 199.828125 333.660156 L 176.703125 333.660156 L 176.703125 298.972656 Z M 183.53125 298.972656 " fill-opacity="1" fill-rule="nonzero"/><path fill="#d2e0f4" d="M 211.621094 298.972656 L 218.449219 298.972656 L 218.449219 333.660156 L 211.621094 333.660156 Z M 211.621094 298.972656 " fill-opacity="1" fill-rule="nonzero"/><path fill="#d2e0f4" d="M 260.808594 298.972656 L 244.980469 335.269531 L 229.152344 298.972656 L 237.339844 298.972656 L 245.261719 318.535156 L 252.714844 298.972656 Z M 260.808594 298.972656 " fill-opacity="1" fill-rule="nonzero"/><path fill="#d2e0f4" d="M 271.515625 298.972656 L 278.34375 298.972656 L 278.34375 333.660156 L 271.515625 333.660156 Z M 271.515625 298.972656 " fill-opacity="1" fill-rule="nonzero"/><path fill="#d2e0f4" d="M 323.25 298.972656 L 323.25 335.066406 L 323.0625 335.066406 L 298.796875 313.160156 L 298.9375 333.660156 L 292.015625 333.660156 L 292.015625 297.613281 L 292.296875 297.613281 L 316.515625 319.847656 L 316.375 298.972656 Z M 323.25 298.972656 " fill-opacity="1" fill-rule="nonzero"/><path fill="#d2e0f4" d="M 365.050781 330.175781 C 364.519531 330.738281 363.566406 331.328125 362.191406 331.941406 C 360.824219 332.558594 359.320312 333.0625 357.675781 333.457031 C 356.027344 333.839844 354.527344 334.035156 353.175781 334.035156 C 349.496094 334.035156 346.269531 333.324219 343.488281 331.894531 C 340.707031 330.46875 338.558594 328.488281 337.050781 325.957031 C 335.550781 323.425781 334.800781 320.542969 334.800781 317.300781 C 334.800781 313.25 335.597656 309.824219 337.191406 307.019531 C 338.792969 304.207031 340.945312 302.105469 343.644531 300.707031 C 346.351562 299.300781 349.339844 298.597656 352.613281 298.597656 C 354.714844 298.597656 356.695312 298.839844 358.550781 299.316406 C 360.402344 299.785156 362.039062 300.394531 363.457031 301.144531 L 361.238281 307.503906 C 360.320312 307.003906 359.070312 306.542969 357.488281 306.113281 C 355.902344 305.6875 354.574219 305.472656 353.503906 305.472656 C 349.730469 305.472656 346.847656 306.417969 344.847656 308.300781 C 342.855469 310.1875 341.863281 312.984375 341.863281 316.691406 C 341.863281 318.828125 342.347656 320.691406 343.316406 322.285156 C 344.292969 323.871094 345.652344 325.089844 347.394531 325.941406 C 349.144531 326.785156 351.132812 327.207031 353.363281 327.207031 C 355.496094 327.207031 357.085938 326.910156 358.128906 326.316406 L 358.128906 322.113281 L 352.144531 322.113281 L 352.144531 315.519531 L 365.050781 315.519531 Z M 365.050781 330.175781 " fill-opacity="1" fill-rule="nonzero"/><path fill="#d2e0f4" d="M 150 353.628906 L 148.5625 351.253906 C 148.488281 351.253906 148.367188 351.253906 148.203125 351.253906 L 146.34375 351.253906 L 146.34375 353.628906 L 145.015625 353.628906 L 145.015625 345.769531 L 148.203125 345.769531 C 149.210938 345.769531 149.992188 346.003906 150.546875 346.472656 C 151.097656 346.941406 151.375 347.605469 151.375 348.457031 C 151.375 349.082031 151.234375 349.613281 150.953125 350.050781 C 150.671875 350.480469 150.269531 350.796875 149.75 351.003906 L 151.515625 353.628906 Z M 146.34375 350.066406 L 148.203125 350.066406 C 149.484375 350.066406 150.125 349.542969 150.125 348.488281 C 150.125 347.46875 149.484375 346.957031 148.203125 346.957031 L 146.34375 346.957031 Z M 146.34375 350.066406 " fill-opacity="1" fill-rule="nonzero"/><path fill="#d2e0f4" d="M 159.894531 346.957031 L 155.597656 346.957031 L 155.597656 349.082031 L 159.441406 349.082031 L 159.441406 350.269531 L 155.597656 350.269531 L 155.597656 352.441406 L 160.019531 352.441406 L 160.019531 353.628906 L 154.269531 353.628906 L 154.269531 345.769531 L 159.894531 345.769531 Z M 159.894531 346.957031 " fill-opacity="1" fill-rule="nonzero"/><path fill="#d2e0f4" d="M 167.84375 351.847656 L 163.875 351.847656 L 163.125 353.628906 L 161.75 353.628906 L 165.21875 345.769531 L 166.578125 345.769531 L 170.015625 353.628906 L 168.59375 353.628906 Z M 167.34375 350.675781 L 165.859375 347.175781 L 164.375 350.675781 Z M 167.34375 350.675781 " fill-opacity="1" fill-rule="nonzero"/><path fill="#d2e0f4" d="M 173.515625 352.425781 L 176.921875 352.425781 L 176.921875 353.628906 L 172.1875 353.628906 L 172.1875 345.769531 L 173.515625 345.769531 Z M 173.515625 352.425781 " fill-opacity="1" fill-rule="nonzero"/><path fill="#d2e0f4" d="M 188.964844 346.957031 L 184.667969 346.957031 L 184.667969 349.082031 L 188.511719 349.082031 L 188.511719 350.269531 L 184.667969 350.269531 L 184.667969 352.441406 L 189.089844 352.441406 L 189.089844 353.628906 L 183.339844 353.628906 L 183.339844 345.769531 L 188.964844 345.769531 Z M 188.964844 346.957031 " fill-opacity="1" fill-rule="nonzero"/><path fill="#d2e0f4" d="M 194.429688 345.707031 C 195.4375 345.707031 196.355469 345.980469 197.179688 346.519531 L 196.617188 347.691406 C 195.824219 347.203125 195.058594 346.957031 194.320312 346.957031 C 193.921875 346.957031 193.609375 347.03125 193.382812 347.175781 C 193.152344 347.3125 193.039062 347.515625 193.039062 347.785156 C 193.039062 348.046875 193.140625 348.269531 193.351562 348.457031 C 193.558594 348.636719 193.820312 348.765625 194.132812 348.847656 C 194.453125 348.933594 194.796875 349.042969 195.164062 349.175781 C 195.527344 349.3125 195.867188 349.453125 196.179688 349.597656 C 196.5 349.746094 196.761719 349.972656 196.960938 350.285156 C 197.167969 350.589844 197.273438 350.964844 197.273438 351.410156 C 197.273438 352.097656 196.996094 352.652344 196.445312 353.066406 C 195.890625 353.472656 195.179688 353.675781 194.304688 353.675781 C 193.710938 353.675781 193.132812 353.566406 192.570312 353.347656 C 192.007812 353.121094 191.515625 352.8125 191.101562 352.425781 L 191.664062 351.285156 C 192.058594 351.652344 192.496094 351.933594 192.976562 352.128906 C 193.453125 352.328125 193.90625 352.425781 194.335938 352.425781 C 194.792969 352.425781 195.152344 352.34375 195.414062 352.175781 C 195.671875 352.011719 195.804688 351.777344 195.804688 351.472656 C 195.804688 351.203125 195.699219 350.980469 195.492188 350.800781 C 195.28125 350.613281 195.015625 350.480469 194.695312 350.394531 C 194.382812 350.300781 194.042969 350.199219 193.679688 350.082031 C 193.3125 349.957031 192.96875 349.828125 192.648438 349.691406 C 192.335938 349.546875 192.074219 349.324219 191.867188 349.019531 C 191.65625 348.707031 191.554688 348.332031 191.554688 347.894531 C 191.554688 347.230469 191.8125 346.699219 192.335938 346.300781 C 192.867188 345.90625 193.5625 345.707031 194.429688 345.707031 Z M 194.429688 345.707031 " fill-opacity="1" fill-rule="nonzero"/><path fill="#d2e0f4" d="M 205.328125 346.957031 L 202.828125 346.957031 L 202.828125 353.628906 L 201.5 353.628906 L 201.5 346.957031 L 199.015625 346.957031 L 199.015625 345.769531 L 205.328125 345.769531 Z M 205.328125 346.957031 " fill-opacity="1" fill-rule="nonzero"/><path fill="#d2e0f4" d="M 212.664062 351.847656 L 208.695312 351.847656 L 207.945312 353.628906 L 206.570312 353.628906 L 210.039062 345.769531 L 211.398438 345.769531 L 214.835938 353.628906 L 213.414062 353.628906 Z M 212.164062 350.675781 L 210.679688 347.175781 L 209.195312 350.675781 Z M 212.164062 350.675781 " fill-opacity="1" fill-rule="nonzero"/><path fill="#d2e0f4" d="M 222.382812 346.957031 L 219.882812 346.957031 L 219.882812 353.628906 L 218.554688 353.628906 L 218.554688 346.957031 L 216.070312 346.957031 L 216.070312 345.769531 L 222.382812 345.769531 Z M 222.382812 346.957031 " fill-opacity="1" fill-rule="nonzero"/><path fill="#d2e0f4" d="M 230.265625 346.957031 L 225.96875 346.957031 L 225.96875 349.082031 L 229.8125 349.082031 L 229.8125 350.269531 L 225.96875 350.269531 L 225.96875 352.441406 L 230.390625 352.441406 L 230.390625 353.628906 L 224.640625 353.628906 L 224.640625 345.769531 L 230.265625 345.769531 Z M 230.265625 346.957031 " fill-opacity="1" fill-rule="nonzero"/></svg>