<svg xmlns="http://www.w3.org/2000/svg" xmlns:xlink="http://www.w3.org/1999/xlink" width="500" zoomAndPan="magnify" viewBox="0 0 375 374.999991" height="500" preserveAspectRatio="xMidYMid meet" version="1.0"><defs><clipPath id="825e3fec6e"><path d="M 0 5.46875 L 375 5.46875 L 375 369.21875 L 0 369.21875 Z M 0 5.46875 " clip-rule="nonzero"/></clipPath></defs><g clip-path="url(#825e3fec6e)"><path fill="#2b2d35" d="M 374.695312 369.523438 L 60.695312 55.523438 L 243.578125 55.523438 C 265.804688 55.523438 286.089844 64.617188 300.78125 79.304688 C 315.472656 93.996094 324.566406 114.28125 324.566406 136.507812 C 324.566406 158.738281 315.472656 179.023438 300.78125 193.714844 C 293.476562 201.019531 284.847656 206.925781 275.289062 211.046875 L 312.285156 248.042969 C 320.988281 242.679688 328.996094 236.304688 336.222656 229.078125 C 360.007812 205.292969 374.695312 172.574219 374.695312 136.433594 C 374.695312 100.367188 359.929688 67.570312 336.222656 43.785156 C 312.441406 20.234375 279.71875 5.46875 243.578125 5.46875 L 0.304688 5.46875 L 0.304688 369.523438 L 43.363281 369.523438 L 72.042969 340.765625 L 140.671875 272.136719 L 173.546875 239.257812 L 303.8125 369.523438 Z M 148.523438 309.675781 L 168.730469 309.675781 L 168.730469 329.882812 L 148.523438 329.882812 Z M 168.730469 339.832031 L 168.730469 360.042969 L 148.523438 360.042969 L 148.523438 339.832031 Z M 178.601562 339.832031 L 198.808594 339.832031 L 198.808594 360.042969 L 178.601562 360.042969 Z M 178.601562 329.882812 L 178.601562 309.675781 L 198.808594 309.675781 L 198.808594 329.882812 Z M 50.359375 260.476562 L 84.867188 260.476562 L 84.867188 297.242188 L 50.359375 331.75 Z M 50.359375 260.476562 " fill-opacity="1" fill-rule="evenodd"/></g></svg>