<svg xmlns="http://www.w3.org/2000/svg" xmlns:xlink="http://www.w3.org/1999/xlink" width="500" zoomAndPan="magnify" viewBox="0 0 375 374.999991" height="500" preserveAspectRatio="xMidYMid meet" version="1.0"><defs><g/><clipPath id="f96603a531"><path d="M 67.480469 37.5 L 307.480469 37.5 L 307.480469 270.75 L 67.480469 270.75 Z M 67.480469 37.5 " clip-rule="nonzero"/></clipPath></defs><g clip-path="url(#f96603a531)"><path fill="#2b2d35" d="M 307.324219 270.539062 L 106.328125 69.539062 L 223.394531 69.539062 C 237.621094 69.539062 250.609375 75.363281 260.011719 84.765625 C 269.414062 94.167969 275.234375 107.152344 275.234375 121.382812 C 275.234375 135.609375 269.414062 148.597656 260.011719 158 C 255.332031 162.675781 249.8125 166.457031 243.691406 169.09375 L 267.375 192.777344 C 272.945312 189.34375 278.070312 185.265625 282.699219 180.636719 C 297.921875 165.414062 307.324219 144.46875 307.324219 121.332031 C 307.324219 98.246094 297.871094 77.253906 282.699219 62.027344 C 267.472656 46.953125 246.527344 37.5 223.394531 37.5 L 67.667969 37.5 L 67.667969 270.539062 L 95.230469 270.539062 L 113.589844 252.128906 L 157.519531 208.199219 L 178.566406 187.15625 L 261.949219 270.539062 Z M 162.546875 232.230469 L 175.480469 232.230469 L 175.480469 245.164062 L 162.546875 245.164062 Z M 175.480469 251.535156 L 175.480469 264.46875 L 162.546875 264.46875 L 162.546875 251.535156 Z M 181.800781 251.535156 L 194.734375 251.535156 L 194.734375 264.46875 L 181.800781 264.46875 Z M 181.800781 245.164062 L 181.800781 232.230469 L 194.734375 232.230469 L 194.734375 245.164062 Z M 99.710938 200.738281 L 121.800781 200.738281 L 121.800781 224.269531 L 99.710938 246.359375 Z M 99.710938 200.738281 " fill-opacity="1" fill-rule="evenodd"/></g><g fill="#2b2d35" fill-opacity="1"><g transform="translate(6.625931, 333.660684)"><g><path d="M 23.1875 0 L 15.875 -11.03125 L 11.3125 -11.03125 L 11.3125 0 L 4.484375 0 L 4.484375 -34.6875 L 14.984375 -34.6875 C 19.285156 -34.6875 22.625 -33.640625 25 -31.546875 C 27.375 -29.460938 28.5625 -26.613281 28.5625 -23 C 28.5625 -20.863281 28.113281 -18.859375 27.21875 -16.984375 C 26.320312 -15.117188 24.945312 -13.648438 23.09375 -12.578125 L 31.15625 0 Z M 11.3125 -17.625 L 16.15625 -17.625 C 18.007812 -17.625 19.359375 -18.164062 20.203125 -19.25 C 21.054688 -20.332031 21.484375 -21.503906 21.484375 -22.765625 C 21.484375 -24.015625 21.125 -25.210938 20.40625 -26.359375 C 19.6875 -27.515625 18.289062 -28.09375 16.21875 -28.09375 L 11.3125 -28.09375 Z M 11.3125 -17.625 "/></g></g></g><g fill="#2b2d35" fill-opacity="1"><g transform="translate(43.665093, 333.660684)"><g><path d="M 28.140625 -34.6875 L 28.140625 -28.09375 L 11.3125 -28.09375 L 11.3125 -20.6875 L 26.203125 -20.6875 L 26.203125 -14.09375 L 11.3125 -14.09375 L 11.3125 -6.59375 L 28.796875 -6.59375 L 28.796875 0 L 4.484375 0 L 4.484375 -34.6875 Z M 28.140625 -34.6875 "/></g></g></g><g fill="#2b2d35" fill-opacity="1"><g transform="translate(79.761804, 333.660684)"><g><path d="M 21.625 -6.78125 L 10.125 -6.78125 L 7.296875 0 L 0.5625 0 L 16.21875 -36.046875 L 16.59375 -36.046875 L 32.234375 0 L 24.3125 0 Z M 19.375 -12.53125 L 16.015625 -20.96875 L 12.53125 -12.53125 Z M 19.375 -12.53125 "/></g></g></g><g fill="#2b2d35" fill-opacity="1"><g transform="translate(117.272203, 333.660684)"><g><path d="M 11.3125 -34.6875 L 11.3125 -6.59375 L 27.609375 -6.59375 L 27.609375 0 L 4.484375 0 L 4.484375 -34.6875 Z M 11.3125 -34.6875 "/></g></g></g><g fill="#2b2d35" fill-opacity="1"><g transform="translate(152.19085, 333.660684)"><g/></g></g><g fill="#2b2d35" fill-opacity="1"><g transform="translate(172.218842, 333.660684)"><g><path d="M 11.3125 -34.6875 L 11.3125 -6.59375 L 27.609375 -6.59375 L 27.609375 0 L 4.484375 0 L 4.484375 -34.6875 Z M 11.3125 -34.6875 "/></g></g></g><g fill="#2b2d35" fill-opacity="1"><g transform="translate(207.137489, 333.660684)"><g><path d="M 11.3125 -34.6875 L 11.3125 0 L 4.484375 0 L 4.484375 -34.6875 Z M 11.3125 -34.6875 "/></g></g></g><g fill="#2b2d35" fill-opacity="1"><g transform="translate(227.636716, 333.660684)"><g><path d="M 33.171875 -34.6875 L 17.34375 1.609375 L 1.515625 -34.6875 L 9.703125 -34.6875 L 17.625 -15.125 L 25.078125 -34.6875 Z M 33.171875 -34.6875 "/></g></g></g><g fill="#2b2d35" fill-opacity="1"><g transform="translate(267.031993, 333.660684)"><g><path d="M 11.3125 -34.6875 L 11.3125 0 L 4.484375 0 L 4.484375 -34.6875 Z M 11.3125 -34.6875 "/></g></g></g><g fill="#2b2d35" fill-opacity="1"><g transform="translate(287.531236, 333.660684)"><g><path d="M 35.71875 -34.6875 L 35.71875 1.40625 L 35.53125 1.40625 L 11.265625 -20.5 L 11.40625 0 L 4.484375 0 L 4.484375 -36.046875 L 4.765625 -36.046875 L 28.984375 -13.8125 L 28.84375 -34.6875 Z M 35.71875 -34.6875 "/></g></g></g><g fill="#2b2d35" fill-opacity="1"><g transform="translate(332.43984, 333.660684)"><g><path d="M 32.609375 -3.484375 C 32.078125 -2.921875 31.125 -2.332031 29.75 -1.71875 C 28.382812 -1.101562 26.878906 -0.597656 25.234375 -0.203125 C 23.585938 0.179688 22.085938 0.375 20.734375 0.375 C 17.054688 0.375 13.828125 -0.335938 11.046875 -1.765625 C 8.265625 -3.191406 6.117188 -5.171875 4.609375 -7.703125 C 3.109375 -10.234375 2.359375 -13.117188 2.359375 -16.359375 C 2.359375 -20.410156 3.15625 -23.835938 4.75 -26.640625 C 6.351562 -29.453125 8.503906 -31.554688 11.203125 -32.953125 C 13.910156 -34.359375 16.898438 -35.0625 20.171875 -35.0625 C 22.273438 -35.0625 24.253906 -34.820312 26.109375 -34.34375 C 27.960938 -33.875 29.597656 -33.265625 31.015625 -32.515625 L 28.796875 -26.15625 C 27.878906 -26.65625 26.628906 -27.117188 25.046875 -27.546875 C 23.460938 -27.972656 22.132812 -28.1875 21.0625 -28.1875 C 17.289062 -28.1875 14.40625 -27.242188 12.40625 -25.359375 C 10.414062 -23.472656 9.421875 -20.675781 9.421875 -16.96875 C 9.421875 -14.832031 9.90625 -12.96875 10.875 -11.375 C 11.851562 -9.789062 13.210938 -8.570312 14.953125 -7.71875 C 16.703125 -6.875 18.691406 -6.453125 20.921875 -6.453125 C 23.054688 -6.453125 24.644531 -6.75 25.6875 -7.34375 L 25.6875 -11.546875 L 19.703125 -11.546875 L 19.703125 -18.140625 L 32.609375 -18.140625 Z M 32.609375 -3.484375 "/></g></g></g><g fill="#2b2d35" fill-opacity="1"><g transform="translate(143.986401, 353.627034)"><g><path d="M 6.015625 0 L 4.578125 -2.375 C 4.503906 -2.375 4.382812 -2.375 4.21875 -2.375 L 2.359375 -2.375 L 2.359375 0 L 1.03125 0 L 1.03125 -7.859375 L 4.21875 -7.859375 C 5.226562 -7.859375 6.007812 -7.625 6.5625 -7.15625 C 7.113281 -6.6875 7.390625 -6.023438 7.390625 -5.171875 C 7.390625 -4.546875 7.25 -4.015625 6.96875 -3.578125 C 6.6875 -3.148438 6.285156 -2.832031 5.765625 -2.625 L 7.53125 0 Z M 2.359375 -3.5625 L 4.21875 -3.5625 C 5.5 -3.5625 6.140625 -4.085938 6.140625 -5.140625 C 6.140625 -6.160156 5.5 -6.671875 4.21875 -6.671875 L 2.359375 -6.671875 Z M 2.359375 -3.5625 "/></g></g></g><g fill="#2b2d35" fill-opacity="1"><g transform="translate(153.237903, 353.627034)"><g><path d="M 6.65625 -6.671875 L 2.359375 -6.671875 L 2.359375 -4.546875 L 6.203125 -4.546875 L 6.203125 -3.359375 L 2.359375 -3.359375 L 2.359375 -1.1875 L 6.78125 -1.1875 L 6.78125 0 L 1.03125 0 L 1.03125 -7.859375 L 6.65625 -7.859375 Z M 6.65625 -6.671875 "/></g></g></g><g fill="#2b2d35" fill-opacity="1"><g transform="translate(161.736248, 353.627034)"><g><path d="M 6.109375 -1.78125 L 2.140625 -1.78125 L 1.390625 0 L 0.015625 0 L 3.484375 -7.859375 L 4.84375 -7.859375 L 8.28125 0 L 6.859375 0 Z M 5.609375 -2.953125 L 4.125 -6.453125 L 2.640625 -2.953125 Z M 5.609375 -2.953125 "/></g></g></g><g fill="#2b2d35" fill-opacity="1"><g transform="translate(171.156374, 353.627034)"><g><path d="M 2.359375 -1.203125 L 5.765625 -1.203125 L 5.765625 0 L 1.03125 0 L 1.03125 -7.859375 L 2.359375 -7.859375 Z M 2.359375 -1.203125 "/></g></g></g><g fill="#2b2d35" fill-opacity="1"><g transform="translate(178.283298, 353.627034)"><g/></g></g><g fill="#2b2d35" fill-opacity="1"><g transform="translate(182.307645, 353.627034)"><g><path d="M 6.65625 -6.671875 L 2.359375 -6.671875 L 2.359375 -4.546875 L 6.203125 -4.546875 L 6.203125 -3.359375 L 2.359375 -3.359375 L 2.359375 -1.1875 L 6.78125 -1.1875 L 6.78125 0 L 1.03125 0 L 1.03125 -7.859375 L 6.65625 -7.859375 Z M 6.65625 -6.671875 "/></g></g></g><g fill="#2b2d35" fill-opacity="1"><g transform="translate(190.805992, 353.627034)"><g><path d="M 3.625 -7.921875 C 4.632812 -7.921875 5.550781 -7.648438 6.375 -7.109375 L 5.8125 -5.9375 C 5.019531 -6.425781 4.253906 -6.671875 3.515625 -6.671875 C 3.117188 -6.671875 2.804688 -6.597656 2.578125 -6.453125 C 2.347656 -6.316406 2.234375 -6.113281 2.234375 -5.84375 C 2.234375 -5.582031 2.335938 -5.359375 2.546875 -5.171875 C 2.753906 -4.992188 3.015625 -4.863281 3.328125 -4.78125 C 3.648438 -4.695312 3.992188 -4.585938 4.359375 -4.453125 C 4.722656 -4.316406 5.0625 -4.175781 5.375 -4.03125 C 5.695312 -3.882812 5.957031 -3.65625 6.15625 -3.34375 C 6.363281 -3.039062 6.46875 -2.664062 6.46875 -2.21875 C 6.46875 -1.53125 6.191406 -0.976562 5.640625 -0.5625 C 5.085938 -0.15625 4.375 0.046875 3.5 0.046875 C 2.90625 0.046875 2.328125 -0.0625 1.765625 -0.28125 C 1.203125 -0.507812 0.710938 -0.816406 0.296875 -1.203125 L 0.859375 -2.34375 C 1.253906 -1.976562 1.691406 -1.695312 2.171875 -1.5 C 2.648438 -1.300781 3.101562 -1.203125 3.53125 -1.203125 C 3.988281 -1.203125 4.347656 -1.285156 4.609375 -1.453125 C 4.867188 -1.617188 5 -1.851562 5 -2.15625 C 5 -2.425781 4.894531 -2.648438 4.6875 -2.828125 C 4.476562 -3.015625 4.210938 -3.148438 3.890625 -3.234375 C 3.578125 -3.328125 3.238281 -3.429688 2.875 -3.546875 C 2.507812 -3.671875 2.164062 -3.800781 1.84375 -3.9375 C 1.53125 -4.082031 1.269531 -4.304688 1.0625 -4.609375 C 0.851562 -4.921875 0.75 -5.296875 0.75 -5.734375 C 0.75 -6.398438 1.007812 -6.929688 1.53125 -7.328125 C 2.0625 -7.722656 2.757812 -7.921875 3.625 -7.921875 Z M 3.625 -7.921875 "/></g></g></g><g fill="#2b2d35" fill-opacity="1"><g transform="translate(198.922135, 353.627034)"><g><path d="M 6.40625 -6.671875 L 3.90625 -6.671875 L 3.90625 0 L 2.578125 0 L 2.578125 -6.671875 L 0.09375 -6.671875 L 0.09375 -7.859375 L 6.40625 -7.859375 Z M 6.40625 -6.671875 "/></g></g></g><g fill="#2b2d35" fill-opacity="1"><g transform="translate(206.5549, 353.627034)"><g><path d="M 6.109375 -1.78125 L 2.140625 -1.78125 L 1.390625 0 L 0.015625 0 L 3.484375 -7.859375 L 4.84375 -7.859375 L 8.28125 0 L 6.859375 0 Z M 5.609375 -2.953125 L 4.125 -6.453125 L 2.640625 -2.953125 Z M 5.609375 -2.953125 "/></g></g></g><g fill="#2b2d35" fill-opacity="1"><g transform="translate(215.975024, 353.627034)"><g><path d="M 6.40625 -6.671875 L 3.90625 -6.671875 L 3.90625 0 L 2.578125 0 L 2.578125 -6.671875 L 0.09375 -6.671875 L 0.09375 -7.859375 L 6.40625 -7.859375 Z M 6.40625 -6.671875 "/></g></g></g><g fill="#2b2d35" fill-opacity="1"><g transform="translate(223.607789, 353.627034)"><g><path d="M 6.65625 -6.671875 L 2.359375 -6.671875 L 2.359375 -4.546875 L 6.203125 -4.546875 L 6.203125 -3.359375 L 2.359375 -3.359375 L 2.359375 -1.1875 L 6.78125 -1.1875 L 6.78125 0 L 1.03125 0 L 1.03125 -7.859375 L 6.65625 -7.859375 Z M 6.65625 -6.671875 "/></g></g></g></svg>