<svg xmlns="http://www.w3.org/2000/svg" xmlns:xlink="http://www.w3.org/1999/xlink" width="3456" zoomAndPan="magnify" viewBox="0 0 2592 2592.000001" height="3456" preserveAspectRatio="xMidYMid meet" version="1.0"><defs><clipPath id="85aff16505"><path d="M 162 6 L 2430.941406 6 L 2430.941406 2588 L 162 2588 Z M 162 6 " clip-rule="nonzero"/></clipPath><clipPath id="bc5b5803fc"><path d="M 727.199219 494.644531 L 958 494.644531 L 958 1147.640625 L 727.199219 1147.640625 Z M 727.199219 494.644531 " clip-rule="nonzero"/></clipPath><clipPath id="5c0e5bd1ee"><path d="M 957 494.644531 L 1188.273438 494.644531 L 1188.273438 1147.640625 L 957 1147.640625 Z M 957 494.644531 " clip-rule="nonzero"/></clipPath></defs><g clip-path="url(#85aff16505)"><path fill="#2b2d35" d="M 611.347656 2575.4375 C 581.152344 2575.378906 552.703125 2576.074219 524.308594 2574.972656 C 499.6875 2574.042969 475.125 2570.90625 450.507812 2568.933594 C 429.371094 2567.25 408.003906 2566.261719 387.097656 2568.875 C 364.164062 2571.777344 341.285156 2571.140625 318.40625 2571.546875 C 305.867188 2571.777344 298.316406 2565.507812 299.128906 2553.082031 C 300.929688 2524.164062 296.457031 2495.304688 301.335938 2466.332031 C 304.296875 2448.621094 302.496094 2430.15625 303.019531 2412.039062 C 304.296875 2368.664062 304.296875 2325.230469 309.292969 2282.03125 C 309.988281 2276.050781 309.753906 2269.953125 309.523438 2263.914062 C 307.144531 2208.925781 312.019531 2154.054688 314.34375 2099.242188 C 315.96875 2060.6875 315.214844 2022.015625 318 1983.574219 C 319.277344 1965.632812 320.207031 1947.632812 322.761719 1929.632812 C 326.128906 1905.824219 326.128906 1881.554688 327.582031 1857.457031 C 327.699219 1855.65625 327.8125 1853.742188 327.292969 1852.058594 C 322.238281 1836.089844 324.503906 1819.65625 324.214844 1803.398438 C 324.15625 1798.636719 324.5625 1793.703125 325.839844 1789.054688 C 331.9375 1766.46875 327.292969 1753.347656 302.207031 1736.042969 C 295.878906 1731.6875 288.328125 1728.492188 280.839844 1726.402344 C 269.691406 1723.210938 261.5625 1716.9375 255.523438 1707.300781 C 248.496094 1696.035156 241.472656 1684.945312 235.605469 1672.925781 C 229.277344 1659.976562 222.832031 1646.96875 214.644531 1634.890625 C 207.386719 1624.09375 210.289062 1608.296875 221.496094 1603.421875 C 235.375 1597.441406 243.15625 1584.316406 255.753906 1577.523438 C 288.273438 1560.046875 293.382812 1526.136719 305.402344 1496.289062 C 303.136719 1477.246094 314.226562 1458.488281 306.273438 1439.152344 C 304.589844 1434.972656 305.75 1429.574219 305.808594 1424.753906 C 306.273438 1392.121094 305.402344 1359.605469 302.554688 1327.03125 C 301.742188 1317.679688 298.027344 1310.886719 291.464844 1305.195312 C 281.128906 1296.195312 273.695312 1286.265625 272.363281 1271.691406 C 271.78125 1265.015625 265.742188 1258.976562 263.363281 1252.183594 C 258.195312 1237.433594 252.386719 1222.742188 254.941406 1206.484375 C 255.8125 1200.738281 253.027344 1196.09375 250.066406 1191.386719 C 244.375 1182.273438 243.269531 1172.75 245.824219 1161.890625 C 249.019531 1148.59375 250.878906 1135.066406 248.265625 1120.957031 C 245.941406 1108.355469 247.800781 1095.753906 254.476562 1084.140625 C 261.445312 1072.179688 259.644531 1061.4375 250.179688 1051.101562 C 238.914062 1038.792969 234.734375 1023.753906 237.636719 1007.378906 C 242.109375 982.121094 241.238281 957.035156 237.636719 931.71875 C 235.605469 917.4375 235.375 902.804688 240.367188 888.695312 C 243.851562 878.824219 244.140625 868.660156 244.082031 858.324219 C 243.96875 838.988281 243.210938 819.539062 244.546875 800.316406 C 246.175781 775.640625 239.03125 752.761719 232.761719 729.59375 C 227.128906 708.691406 223.527344 686.742188 213.542969 667.582031 C 206.167969 653.46875 200.011719 639.070312 197.863281 623.914062 C 195.25 605.796875 190.429688 588.613281 184.683594 571.480469 C 182.941406 566.3125 180.792969 561.320312 178.875 556.269531 C 174.753906 545.527344 171.09375 534.902344 174.519531 522.996094 C 175.796875 518.527344 175.042969 513.359375 175.101562 508.539062 C 175.21875 466.789062 175.21875 425.097656 175.449219 383.351562 C 175.507812 372.375 175.042969 361.460938 170.863281 351.296875 C 165.636719 338.753906 168.367188 327.199219 175.160156 316.921875 C 184.914062 302.289062 187.355469 287.425781 181.199219 270.992188 C 173.476562 250.378906 170.921875 228.953125 171.5 207.0625 C 171.617188 202.242188 171.328125 197.65625 169.179688 192.953125 C 160.585938 173.90625 160.703125 173.851562 166.101562 151.960938 C 170.109375 148.183594 175.160156 149.230469 179.863281 149.171875 C 219.171875 149.054688 258.601562 147.140625 297.734375 149.519531 C 350.867188 152.714844 404.171875 150.101562 457.066406 153.816406 C 501.835938 156.953125 546.429688 154.980469 591.140625 156.429688 C 611.058594 157.070312 630.914062 158.171875 650.773438 158.984375 C 679.515625 160.148438 708.550781 162.410156 737.40625 157.882812 C 746.175781 156.488281 755.351562 157.648438 762.957031 157.648438 C 770.679688 149.054688 770.15625 140.519531 770.445312 132.101562 C 771.667969 100.050781 768.761719 68.171875 767.425781 36.234375 C 767.3125 33.214844 767.019531 30.195312 767.136719 27.175781 C 767.890625 6.449219 774.394531 1.859375 793.207031 10.511719 C 801.222656 14.226562 807.78125 14.171875 815.449219 10.859375 C 822.183594 7.957031 829.207031 6.738281 836.523438 10.046875 C 847.382812 14.984375 856.847656 22.125 869.621094 23.808594 C 878.914062 25.027344 880.191406 35.945312 880.828125 44.539062 C 881.992188 59.519531 881.933594 74.5 883.90625 89.539062 C 885.9375 105.390625 890.0625 120.3125 895.808594 134.773438 C 908.699219 167.113281 913.402344 200.792969 913.984375 235.285156 C 914.101562 241.320312 913.808594 247.359375 913.808594 253.398438 C 913.808594 274.882812 920.140625 284.753906 940.753906 290.097656 C 956.082031 294.046875 970.597656 301.1875 988.25 296.078125 C 997.367188 293.40625 1009.558594 296.484375 1020.011719 297.761719 C 1030.753906 299.097656 1038.824219 307.921875 1041.960938 317.96875 C 1065.304688 322.03125 1087.25 325.808594 1109.140625 329.640625 C 1117.503906 331.089844 1125.921875 331.265625 1134.460938 331.265625 C 1155.828125 331.324219 1165.523438 340.148438 1167.90625 361.054688 C 1170.109375 380.5625 1173.304688 383.234375 1191.769531 379.460938 C 1201.410156 377.484375 1211.046875 378.472656 1220.6875 377.890625 C 1237.0625 376.960938 1253.667969 376.5 1261.507812 357.917969 C 1262.144531 356.40625 1263.769531 354.609375 1265.28125 354.203125 C 1283.917969 348.628906 1298.667969 335.039062 1317.074219 328.882812 C 1322.476562 327.085938 1328.339844 325.457031 1332.925781 328.015625 C 1348.199219 336.664062 1364.6875 334.285156 1380.773438 334.167969 C 1402.199219 333.9375 1422.058594 335.386719 1440.464844 349.789062 C 1449.171875 356.582031 1461.949219 359.890625 1472.863281 364.652344 C 1478.960938 367.324219 1484.476562 365.8125 1490.515625 365.117188 C 1507.296875 363.257812 1519.546875 372.609375 1520.011719 386.542969 C 1520.417969 399.261719 1518.851562 401.351562 1505.496094 405.066406 C 1503.230469 405.707031 1500.621094 405.300781 1499.167969 409.421875 C 1504.335938 417.144531 1512.640625 414.300781 1519.605469 413.429688 C 1526.75 412.5 1533.660156 410.058594 1541.03125 410.410156 C 1549.21875 410.757812 1554.910156 413.71875 1556.304688 422.601562 C 1557.175781 427.945312 1560.136719 433.34375 1559.554688 438.394531 C 1557.640625 454.304688 1564.957031 466.269531 1573.722656 478.171875 C 1580.515625 487.34375 1586.90625 496.808594 1590.273438 507.261719 C 1595.960938 508.132812 1599.679688 506.332031 1603.628906 503.546875 C 1606.296875 497.679688 1601.1875 492.398438 1601.363281 486.417969 C 1601.769531 473.582031 1606.066406 463.191406 1617.097656 460.578125 C 1634.519531 456.511719 1651.242188 448.90625 1669.9375 450.589844 C 1685.324219 451.984375 1700.421875 464.234375 1700.828125 479.855469 C 1701.117188 490.886719 1706.519531 495.011719 1715.519531 497.042969 C 1719.640625 497.972656 1724.230469 498.085938 1727.421875 500.875 C 1740.371094 512.253906 1755.234375 516.4375 1772.480469 516.203125 C 1783.339844 516.085938 1787.578125 522.476562 1788.449219 534.144531 C 1788.855469 540.125 1787.40625 546.28125 1790.367188 552.320312 C 1797.042969 557.71875 1805.230469 555.222656 1812.835938 555.515625 C 1827.933594 556.035156 1827.933594 555.863281 1832.289062 570.726562 C 1832.753906 572.351562 1833.855469 573.804688 1835.132812 576.183594 C 1845.761719 573.339844 1856.445312 572.351562 1866.835938 576.941406 C 1867.359375 577.171875 1868.058594 577.289062 1868.636719 577.171875 C 1887.449219 572.238281 1908.761719 573.339844 1922.988281 556.851562 C 1933.378906 544.886719 1945.691406 535.25 1957.652344 525.03125 C 1959.917969 523.113281 1962.644531 520.152344 1965.085938 520.210938 C 1979.773438 520.558594 1989.53125 510.746094 2000.503906 503.605469 C 2008.75 498.203125 2017.867188 495.066406 2027.097656 492.398438 C 2038.710938 489.027344 2044.925781 492.570312 2045.910156 504.417969 C 2046.550781 512.371094 2048.292969 518.003906 2055.667969 522.011719 C 2061.820312 525.320312 2060.253906 532.695312 2061.9375 538.328125 C 2067.511719 557.023438 2073.667969 558.996094 2090.679688 549.996094 C 2103.222656 543.378906 2116.925781 535.714844 2128.015625 553.421875 C 2130.046875 556.617188 2134.808594 555.28125 2138.292969 555.28125 C 2169.066406 555.339844 2199.726562 556.675781 2230.269531 550.289062 C 2244.785156 547.269531 2259.941406 548.023438 2274.863281 553.597656 C 2288.390625 558.707031 2296.171875 566.3125 2297.101562 580.773438 C 2297.21875 582.398438 2298.4375 584.023438 2299.308594 585.941406 C 2307.671875 590.351562 2319.339844 585.59375 2324.335938 596.449219 C 2341.929688 582.515625 2360.160156 582.28125 2379.03125 584.023438 C 2393.316406 585.359375 2407.660156 585.824219 2422 586.40625 C 2426.007812 586.578125 2429.375 587.335938 2430.304688 591.574219 C 2431.175781 595.40625 2429.722656 598.832031 2426.066406 600.6875 C 2422.871094 602.316406 2419.445312 603.59375 2416.078125 604.8125 C 2407.714844 607.773438 2398.542969 609.167969 2396.394531 620.488281 C 2395.871094 623.21875 2391.515625 625.773438 2388.4375 627.457031 C 2371.019531 636.804688 2356.851562 651.089844 2337.167969 657.417969 C 2323.753906 661.714844 2312.082031 671.296875 2299.714844 678.730469 C 2287.695312 685.988281 2275.269531 691.039062 2260.867188 692.085938 C 2241.183594 693.476562 2223.941406 702.941406 2207.214844 712.582031 C 2189.855469 722.566406 2171.15625 728.957031 2152.519531 735.691406 C 2141.71875 739.640625 2130.976562 743.644531 2123.253906 752.996094 C 2121.394531 755.257812 2118.839844 757.464844 2116.113281 758.511719 C 2087.019531 769.777344 2062.109375 788.183594 2038.941406 807.984375 C 2021.8125 822.613281 2001.140625 833.355469 1987.789062 852.402344 C 1985.8125 855.191406 1982.269531 857.046875 1979.078125 858.671875 C 1974.605469 860.996094 1970.308594 864.304688 1968.507812 868.3125 C 1958.8125 890.027344 1938.316406 903.441406 1926.761719 923.882812 C 1916.832031 941.417969 1900.574219 953.726562 1884.835938 965.921875 C 1873.863281 974.457031 1863.816406 983.28125 1855.515625 994.953125 C 1847.210938 1006.566406 1835.25 1015.566406 1824.972656 1025.84375 C 1823.171875 1027.644531 1821.199219 1029.039062 1818.757812 1029.039062 C 1809.0625 1028.980469 1802.382812 1035.367188 1797.972656 1041.984375 C 1786.066406 1059.871094 1765.859375 1069.507812 1754.480469 1087.625 C 1731.777344 1097.960938 1721.90625 1125.136719 1696.296875 1131.753906 C 1693.28125 1132.511719 1691.886719 1135.585938 1689.96875 1137.910156 C 1681.433594 1148.128906 1672.667969 1157.941406 1661.109375 1165.085938 C 1655.480469 1168.570312 1649.789062 1173.5625 1650.777344 1181.054688 C 1652.402344 1193.246094 1644.679688 1198.414062 1636.085938 1203.292969 C 1631.902344 1205.613281 1627.550781 1207.648438 1622.148438 1210.375 C 1621.277344 1229.886719 1620.175781 1249.800781 1622.613281 1269.488281 C 1624.644531 1285.804688 1625.34375 1301.769531 1622.324219 1318.03125 C 1620.988281 1325.054688 1621.625 1332.488281 1621.570312 1339.746094 C 1621.511719 1374.699219 1621.453125 1409.597656 1621.570312 1444.554688 C 1621.625 1462.902344 1606.703125 1472.136719 1596.890625 1484.210938 C 1592.476562 1489.613281 1585.566406 1484.328125 1578.714844 1483.339844 C 1572.386719 1493.617188 1563.328125 1500.820312 1550.207031 1501.285156 C 1549.101562 1501.34375 1547.417969 1501.75 1546.953125 1502.5625 C 1536.675781 1519.285156 1515.832031 1520.214844 1502.300781 1532.347656 C 1497.191406 1536.9375 1491.910156 1541.058594 1490.515625 1547.679688 C 1487.148438 1563.296875 1476.289062 1575.550781 1471.875 1590.648438 C 1470.367188 1595.871094 1467.578125 1600.808594 1461.597656 1602.433594 C 1457.882812 1603.480469 1455.445312 1605.976562 1453.179688 1608.9375 C 1449.40625 1613.929688 1439.824219 1646.738281 1439.882812 1653.066406 C 1439.941406 1661.3125 1443.945312 1665.785156 1451.84375 1665.839844 C 1462.875 1665.898438 1472.804688 1671.589844 1483.429688 1669.90625 C 1489.46875 1679.136719 1494.753906 1687.152344 1494.519531 1697.429688 C 1494.347656 1704.570312 1500.210938 1707.589844 1504.449219 1711.714844 C 1520.128906 1726.75 1519.78125 1743.9375 1507.179688 1761.589844 C 1495.390625 1778.140625 1483.023438 1794.6875 1482.734375 1817.449219 C 1482.558594 1828.832031 1481.050781 1839.398438 1486.042969 1850.316406 C 1488.832031 1856.410156 1486.335938 1863.265625 1484.242188 1869.707031 C 1481.28125 1878.941406 1478.089844 1887.941406 1472.050781 1896.882812 C 1478.613281 1906.40625 1481.28125 1917.207031 1479.945312 1928.878906 C 1479.539062 1932.535156 1480.527344 1935.960938 1482.910156 1939.039062 C 1488.484375 1946.066406 1488.425781 1953.730469 1483.722656 1960.929688 C 1480.121094 1966.445312 1479.832031 1972.195312 1480.003906 1978.234375 C 1480.351562 1990.949219 1479.597656 2002.796875 1471.585938 2014.292969 C 1463.804688 2025.5 1468.042969 2032.292969 1480.351562 2040.1875 C 1497.597656 2051.222656 1511.300781 2065.738281 1521.753906 2083.738281 C 1530.058594 2097.964844 1541.960938 2109.402344 1560.308594 2108.53125 C 1576.742188 2107.777344 1592.652344 2110.796875 1608.851562 2112.363281 C 1620.871094 2113.527344 1623.136719 2122.640625 1624.820312 2131.351562 C 1628.128906 2148.191406 1638.058594 2159.222656 1652.515625 2167.292969 C 1655.769531 2169.09375 1659.019531 2170.371094 1662.621094 2170.835938 C 1677.71875 2172.925781 1691.074219 2179.488281 1704.195312 2186.863281 C 1722.253906 2196.964844 1738.511719 2207.589844 1745.886719 2229.132812 C 1749.195312 2238.890625 1756.453125 2246.960938 1757.035156 2258.574219 C 1757.382812 2265.25 1762.726562 2271.695312 1769.695312 2275.296875 C 1792.6875 2287.023438 1809.585938 2305.605469 1825.03125 2325.523438 C 1829.734375 2331.5625 1834.550781 2336.378906 1842.273438 2337.367188 C 1853.65625 2338.761719 1863.992188 2344.453125 1875.664062 2345.207031 C 1885.476562 2345.84375 1890.46875 2355.136719 1897.4375 2360.652344 C 1911.371094 2371.570312 1927.574219 2381.148438 1929.722656 2401.644531 C 1930.128906 2405.363281 1933.207031 2407.800781 1935.355469 2410.703125 C 1951.378906 2432.480469 1965.316406 2454.542969 1955.792969 2483.925781 C 1952.191406 2495.132812 1953.0625 2506.746094 1957.476562 2518.9375 C 1963.109375 2534.558594 1964.503906 2551.746094 1967.636719 2568.234375 C 1969.03125 2575.667969 1967.8125 2581.359375 1958.582031 2582.402344 C 1919.503906 2586.875 1880.367188 2587.457031 1841.230469 2583.332031 C 1835.25 2582.695312 1829.152344 2582.578125 1823.113281 2582.578125 C 1785.601562 2582.519531 1748.035156 2581.183594 1710.640625 2582.808594 C 1585.566406 2588.09375 1460.378906 2588.441406 1335.363281 2585.25 C 1178.179688 2581.242188 1020.996094 2584.902344 863.871094 2582.054688 C 832.574219 2581.476562 801.277344 2578.105469 769.863281 2578.921875 C 754.824219 2579.328125 739.785156 2578.105469 724.746094 2581.417969 C 717.257812 2583.042969 708.78125 2582.984375 701.289062 2581.300781 C 689.269531 2578.570312 677.25 2578.339844 665.230469 2578.976562 C 647.753906 2579.90625 630.566406 2575.785156 611.347656 2575.4375 Z M 611.347656 2575.4375 " fill-opacity="1" fill-rule="nonzero"/></g><g clip-path="url(#bc5b5803fc)"><path fill="#e21218" d="M 727.410156 725.027344 C 727.410156 830.414062 885.429688 1061.925781 939.695312 1138.324219 C 944.109375 1144.535156 950.921875 1147.640625 957.738281 1147.640625 L 957.738281 494.644531 C 830.53125 494.644531 727.410156 597.789062 727.410156 725.027344 " fill-opacity="1" fill-rule="nonzero"/></g><g clip-path="url(#5c0e5bd1ee)"><path fill="#c81113" d="M 957.738281 494.644531 L 957.738281 1147.640625 C 964.550781 1147.640625 971.363281 1144.535156 975.78125 1138.324219 C 1030.042969 1061.925781 1188.066406 830.414062 1188.066406 725.027344 C 1188.066406 597.789062 1084.945312 494.644531 957.738281 494.644531 " fill-opacity="1" fill-rule="nonzero"/></g><path fill="#cd1a1f" d="M 957.738281 855.316406 C 895.484375 851.050781 846.316406 799.1875 846.316406 735.835938 C 846.316406 672.484375 895.484375 620.625 957.738281 616.355469 L 957.738281 855.316406 " fill-opacity="1" fill-rule="nonzero"/><path fill="#b7191b" d="M 966.050781 855.605469 C 963.257812 855.605469 960.480469 855.507812 957.738281 855.316406 L 957.738281 616.355469 C 960.480469 616.167969 963.257812 616.074219 966.050781 616.074219 C 1032.179688 616.074219 1085.789062 669.691406 1085.789062 735.835938 C 1085.789062 801.980469 1032.179688 855.605469 966.050781 855.605469 " fill-opacity="1" fill-rule="nonzero"/><path fill="#ffffff" d="M 1077.472656 727.523438 C 1077.472656 793.664062 1023.867188 847.285156 957.738281 847.285156 C 891.609375 847.285156 838 793.664062 838 727.523438 C 838 661.378906 891.609375 607.753906 957.738281 607.753906 C 1023.867188 607.753906 1077.472656 661.378906 1077.472656 727.523438 " fill-opacity="1" fill-rule="nonzero"/></svg>