<svg xmlns="http://www.w3.org/2000/svg" xmlns:xlink="http://www.w3.org/1999/xlink" width="500" zoomAndPan="magnify" viewBox="0 0 375 112.499997" height="150" preserveAspectRatio="xMidYMid meet" version="1.0"><defs><g/><clipPath id="68f1ac1ae3"><path d="M 0.828125 0 L 374.167969 0 L 374.167969 112.003906 L 0.828125 112.003906 Z M 0.828125 0 " clip-rule="nonzero"/></clipPath><clipPath id="5fb8291385"><path d="M 30.695312 0 L 344.304688 0 C 360.796875 0 374.171875 13.371094 374.171875 29.867188 L 374.171875 82.136719 C 374.171875 98.628906 360.796875 112.003906 344.304688 112.003906 L 30.695312 112.003906 C 14.203125 112.003906 0.828125 98.628906 0.828125 82.136719 L 0.828125 29.867188 C 0.828125 13.371094 14.203125 0 30.695312 0 Z M 30.695312 0 " clip-rule="nonzero"/></clipPath></defs><g clip-path="url(#68f1ac1ae3)"><g clip-path="url(#5fb8291385)"><path fill="#ff3131" d="M 0.828125 0 L 374.171875 0 L 374.171875 112.003906 L 0.828125 112.003906 Z M 0.828125 0 " fill-opacity="1" fill-rule="nonzero"/></g></g><g fill="#ffffff" fill-opacity="1"><g transform="translate(25.495805, 70.561389)"><g><path d="M 17.5625 -32.296875 C 19.476562 -32.296875 21.332031 -31.925781 23.125 -31.1875 C 24.914062 -30.457031 26.492188 -29.394531 27.859375 -28 C 30.878906 -24.90625 32.390625 -20.953125 32.390625 -16.140625 C 32.390625 -11.328125 30.878906 -7.378906 27.859375 -4.296875 C 26.492188 -2.890625 24.914062 -1.820312 23.125 -1.09375 C 21.332031 -0.363281 19.476562 0 17.5625 0 L 3.953125 0 L 3.953125 -32.296875 Z M 17.421875 -3.46875 C 20.796875 -3.46875 23.539062 -4.71875 25.65625 -7.21875 C 27.707031 -9.625 28.734375 -12.597656 28.734375 -16.140625 C 28.734375 -19.691406 27.707031 -22.671875 25.65625 -25.078125 C 23.539062 -27.578125 20.796875 -28.828125 17.421875 -28.828125 L 7.609375 -28.828125 L 7.609375 -3.46875 Z M 17.421875 -3.46875 "/></g></g></g><g fill="#ffffff" fill-opacity="1"><g transform="translate(59.836426, 70.561389)"><g><path d="M 7.609375 -28.78125 L 7.609375 -17.953125 L 25.5625 -17.953125 L 25.5625 -14.390625 L 7.609375 -14.390625 L 7.609375 -3.515625 L 27.703125 -3.515625 L 27.703125 0 L 3.953125 0 L 3.953125 -32.296875 L 27.703125 -32.296875 L 27.703125 -28.78125 Z M 7.609375 -28.78125 "/></g></g></g><g fill="#ffffff" fill-opacity="1"><g transform="translate(89.494235, 70.561389)"><g><path d="M 7.65625 -27.328125 C 7.039062 -26.796875 6.625 -26.203125 6.40625 -25.546875 C 6.195312 -24.898438 6.09375 -24.210938 6.09375 -23.484375 C 6.09375 -22.753906 6.410156 -22.078125 7.046875 -21.453125 C 7.679688 -20.835938 8.519531 -20.316406 9.5625 -19.890625 C 10.601562 -19.472656 11.789062 -19.101562 13.125 -18.78125 C 14.457031 -18.457031 15.8125 -18.125 17.1875 -17.78125 C 18.570312 -17.4375 19.929688 -17.046875 21.265625 -16.609375 C 22.597656 -16.171875 23.785156 -15.609375 24.828125 -14.921875 C 27.140625 -13.460938 28.296875 -11.460938 28.296875 -8.921875 C 28.296875 -5.898438 27.164062 -3.59375 24.90625 -2 C 22.644531 -0.40625 19.515625 0.390625 15.515625 0.390625 C 10.992188 0.390625 7.546875 -0.550781 5.171875 -2.4375 C 3.054688 -4.125 1.851562 -6.53125 1.5625 -9.65625 L 5.359375 -9.65625 C 5.492188 -7.445312 6.566406 -5.753906 8.578125 -4.578125 C 10.335938 -3.578125 12.664062 -3.078125 15.5625 -3.078125 C 21.613281 -3.078125 24.640625 -4.976562 24.640625 -8.78125 C 24.640625 -10.082031 24.09375 -11.101562 23 -11.84375 C 21.90625 -12.59375 20.535156 -13.210938 18.890625 -13.703125 C 17.253906 -14.191406 15.484375 -14.644531 13.578125 -15.0625 C 11.679688 -15.488281 9.910156 -16.035156 8.265625 -16.703125 C 6.628906 -17.367188 5.265625 -18.242188 4.171875 -19.328125 C 3.078125 -20.421875 2.53125 -21.894531 2.53125 -23.75 C 2.53125 -26.382812 3.535156 -28.53125 5.546875 -30.1875 C 7.566406 -31.851562 10.613281 -32.6875 14.6875 -32.6875 C 18.78125 -32.6875 21.953125 -31.742188 24.203125 -29.859375 C 26.242188 -28.191406 27.332031 -26.0625 27.46875 -23.46875 L 23.703125 -23.46875 C 23.378906 -26.132812 21.65625 -27.90625 18.53125 -28.78125 C 17.425781 -29.101562 16.050781 -29.265625 14.40625 -29.265625 C 12.769531 -29.265625 11.390625 -29.078125 10.265625 -28.703125 C 9.140625 -28.328125 8.269531 -27.867188 7.65625 -27.328125 Z M 7.65625 -27.328125 "/></g></g></g><g fill="#ffffff" fill-opacity="1"><g transform="translate(119.493493, 70.561389)"><g><path d="M 16.96875 -19.3125 L 31.515625 0 L 26.921875 0 L 14.296875 -16.828125 L 7.609375 -10.578125 L 7.609375 0 L 3.953125 0 L 3.953125 -32.296875 L 7.609375 -32.296875 L 7.609375 -15.46875 L 25.5625 -32.296875 L 30.734375 -32.296875 Z M 16.96875 -19.3125 "/></g></g></g><g fill="#ffffff" fill-opacity="1"><g transform="translate(150.761014, 70.561389)"><g><path d="M 26.875 -28.78125 L 15.609375 -28.78125 L 15.609375 0 L 11.953125 0 L 11.953125 -28.78125 L 0.6875 -28.78125 L 0.6875 -32.296875 L 26.875 -32.296875 Z M 26.875 -28.78125 "/></g></g></g><g fill="#ffffff" fill-opacity="1"><g transform="translate(178.321311, 70.561389)"><g><path d="M 18.296875 -32.6875 C 23.109375 -32.6875 27.054688 -31.078125 30.140625 -27.859375 C 33.171875 -24.734375 34.6875 -20.828125 34.6875 -16.140625 C 34.6875 -11.460938 33.171875 -7.5625 30.140625 -4.4375 C 27.054688 -1.21875 23.109375 0.390625 18.296875 0.390625 C 13.484375 0.390625 9.53125 -1.21875 6.4375 -4.4375 C 3.414062 -7.5625 1.90625 -11.460938 1.90625 -16.140625 C 1.90625 -20.828125 3.414062 -24.734375 6.4375 -27.859375 C 9.53125 -31.078125 13.484375 -32.6875 18.296875 -32.6875 Z M 18.296875 -3.171875 C 22.128906 -3.171875 25.234375 -4.421875 27.609375 -6.921875 C 29.890625 -9.328125 31.03125 -12.398438 31.03125 -16.140625 C 31.03125 -19.878906 29.890625 -22.953125 27.609375 -25.359375 C 25.234375 -27.867188 22.128906 -29.125 18.296875 -29.125 C 14.453125 -29.125 11.34375 -27.867188 8.96875 -25.359375 C 6.695312 -22.953125 5.5625 -19.878906 5.5625 -16.140625 C 5.5625 -12.398438 6.695312 -9.328125 8.96875 -6.921875 C 11.34375 -4.421875 14.453125 -3.171875 18.296875 -3.171875 Z M 18.296875 -3.171875 "/></g></g></g><g fill="#ffffff" fill-opacity="1"><g transform="translate(214.905781, 70.561389)"><g><path d="M 7.609375 0 L 3.953125 0 L 3.953125 -32.296875 L 18.484375 -32.296875 C 21.898438 -32.296875 24.617188 -31.351562 26.640625 -29.46875 C 28.617188 -27.582031 29.609375 -25.0625 29.609375 -21.90625 C 29.609375 -18.71875 28.609375 -16.1875 26.609375 -14.3125 C 24.609375 -12.445312 21.898438 -11.515625 18.484375 -11.515625 L 7.609375 -11.515625 Z M 7.609375 -28.828125 L 7.609375 -14.921875 L 18.25 -14.921875 C 20.78125 -14.921875 22.695312 -15.539062 24 -16.78125 C 25.300781 -18.019531 25.953125 -19.71875 25.953125 -21.875 C 25.953125 -24.039062 25.300781 -25.738281 24 -26.96875 C 22.695312 -28.207031 20.78125 -28.828125 18.25 -28.828125 Z M 7.609375 -28.828125 "/></g></g></g><g fill="#ffffff" fill-opacity="1"><g transform="translate(245.539166, 70.561389)"><g/></g></g><g fill="#ffffff" fill-opacity="1"><g transform="translate(255.929152, 70.561389)"><g><path d="M 32.140625 0 L 28.09375 0 L 24.140625 -9.359375 L 8.140625 -9.359375 L 4.1875 0 L 0.140625 0 L 13.859375 -32.296875 L 18.4375 -32.296875 Z M 22.734375 -12.734375 L 16.140625 -28.484375 L 9.5625 -12.734375 Z M 22.734375 -12.734375 "/></g></g></g><g fill="#ffffff" fill-opacity="1"><g transform="translate(288.221048, 70.561389)"><g><path d="M 7.609375 0 L 3.953125 0 L 3.953125 -32.296875 L 18.484375 -32.296875 C 21.898438 -32.296875 24.617188 -31.351562 26.640625 -29.46875 C 28.617188 -27.582031 29.609375 -25.0625 29.609375 -21.90625 C 29.609375 -18.71875 28.609375 -16.1875 26.609375 -14.3125 C 24.609375 -12.445312 21.898438 -11.515625 18.484375 -11.515625 L 7.609375 -11.515625 Z M 7.609375 -28.828125 L 7.609375 -14.921875 L 18.25 -14.921875 C 20.78125 -14.921875 22.695312 -15.539062 24 -16.78125 C 25.300781 -18.019531 25.953125 -19.71875 25.953125 -21.875 C 25.953125 -24.039062 25.300781 -25.738281 24 -26.96875 C 22.695312 -28.207031 20.78125 -28.828125 18.25 -28.828125 Z M 7.609375 -28.828125 "/></g></g></g><g fill="#ffffff" fill-opacity="1"><g transform="translate(318.854444, 70.561389)"><g><path d="M 7.609375 0 L 3.953125 0 L 3.953125 -32.296875 L 18.484375 -32.296875 C 21.898438 -32.296875 24.617188 -31.351562 26.640625 -29.46875 C 28.617188 -27.582031 29.609375 -25.0625 29.609375 -21.90625 C 29.609375 -18.71875 28.609375 -16.1875 26.609375 -14.3125 C 24.609375 -12.445312 21.898438 -11.515625 18.484375 -11.515625 L 7.609375 -11.515625 Z M 7.609375 -28.828125 L 7.609375 -14.921875 L 18.25 -14.921875 C 20.78125 -14.921875 22.695312 -15.539062 24 -16.78125 C 25.300781 -18.019531 25.953125 -19.71875 25.953125 -21.875 C 25.953125 -24.039062 25.300781 -25.738281 24 -26.96875 C 22.695312 -28.207031 20.78125 -28.828125 18.25 -28.828125 Z M 7.609375 -28.828125 "/></g></g></g></svg>