<svg xmlns="http://www.w3.org/2000/svg" xmlns:xlink="http://www.w3.org/1999/xlink" width="500" zoomAndPan="magnify" viewBox="0 0 375 374.999991" height="500" preserveAspectRatio="xMidYMid meet" version="1.0"><defs><g/><clipPath id="220be8302f"><path d="M 3.75 94.609375 L 105 94.609375 L 105 263 L 3.75 263 Z M 3.75 94.609375 " clip-rule="nonzero"/></clipPath><clipPath id="d0fcaa7fd9"><path d="M 269.996094 94.609375 L 370.953125 94.609375 L 370.953125 263 L 269.996094 263 Z M 269.996094 94.609375 " clip-rule="nonzero"/></clipPath></defs><g clip-path="url(#220be8302f)"><path fill="#413e3d" d="M 87.570312 262.964844 L 3.765625 179.15625 L 88.152344 94.769531 L 105.3125 111.929688 L 38.082031 179.15625 L 104.730469 245.804688 L 87.570312 262.964844 " fill-opacity="1" fill-rule="nonzero"/></g><g clip-path="url(#d0fcaa7fd9)"><path fill="#413e3d" d="M 287.425781 262.964844 L 371.230469 179.15625 L 286.84375 94.769531 L 269.683594 111.929688 L 336.910156 179.15625 L 270.265625 245.804688 L 287.425781 262.964844 " fill-opacity="1" fill-rule="nonzero"/></g><path stroke-linecap="butt" transform="matrix(0.75, 0, 0, 0.75, 62.601562, -89.66278)" fill="none" stroke-linejoin="miter" d="M 186.411471 530.998324 L 146.723969 530.998324 L 146.723969 392.289982 L -0.515624 180.414968 L 47.703129 180.414968 L 166.244803 350.925396 L 284.916686 180.414968 L 333.005231 180.414968 L 186.411471 392.289982 Z M 186.411471 530.998324 " stroke="#3b6270" stroke-width="39.712875" stroke-opacity="1" stroke-miterlimit="4"/><g fill="#3b6270" fill-opacity="1"><g transform="translate(62.601562, 308.587194)"><g><path d="M 139.78125 0 L 110 0 L 110 -104.046875 L -0.390625 -262.890625 L 35.734375 -262.890625 L 124.703125 -135.015625 L 213.65625 -262.890625 L 249.796875 -262.890625 L 139.78125 -104.046875 Z M 139.78125 0 "/></g></g></g></svg>