<svg xmlns="http://www.w3.org/2000/svg" xmlns:xlink="http://www.w3.org/1999/xlink" width="500" zoomAndPan="magnify" viewBox="0 0 375 112.499997" height="150" preserveAspectRatio="xMidYMid meet" version="1.0"><defs><g/><clipPath id="8a5a7178ff"><path d="M 0.828125 0 L 374.167969 0 L 374.167969 112.003906 L 0.828125 112.003906 Z M 0.828125 0 " clip-rule="nonzero"/></clipPath><clipPath id="df398c7d82"><path d="M 30.695312 0 L 344.304688 0 C 360.796875 0 374.171875 13.371094 374.171875 29.867188 L 374.171875 82.136719 C 374.171875 98.628906 360.796875 112.003906 344.304688 112.003906 L 30.695312 112.003906 C 14.203125 112.003906 0.828125 98.628906 0.828125 82.136719 L 0.828125 29.867188 C 0.828125 13.371094 14.203125 0 30.695312 0 Z M 30.695312 0 " clip-rule="nonzero"/></clipPath></defs><g clip-path="url(#8a5a7178ff)"><g clip-path="url(#df398c7d82)"><path fill="#00bf63" d="M 0.828125 0 L 374.171875 0 L 374.171875 112.003906 L 0.828125 112.003906 Z M 0.828125 0 " fill-opacity="1" fill-rule="nonzero"/></g></g><g fill="#ffffff" fill-opacity="1"><g transform="translate(27.833846, 72.428092)"><g><path d="M 40.4375 -36.921875 L 40.4375 0 L 36.25 0 L 36.25 -30.5625 L 22.578125 -13 L 8.703125 -30.5625 L 8.703125 0 L 4.515625 0 L 4.515625 -36.921875 L 9.375 -36.921875 L 22.578125 -19.40625 L 35.578125 -36.921875 Z M 40.4375 -36.921875 "/></g></g></g><g fill="#ffffff" fill-opacity="1"><g transform="translate(72.773329, 72.428092)"><g><path d="M 20.90625 -37.359375 C 26.414062 -37.359375 30.9375 -35.519531 34.46875 -31.84375 C 37.925781 -28.269531 39.65625 -23.804688 39.65625 -18.453125 C 39.65625 -13.097656 37.925781 -8.640625 34.46875 -5.078125 C 30.9375 -1.390625 26.414062 0.453125 20.90625 0.453125 C 15.40625 0.453125 10.890625 -1.390625 7.359375 -5.078125 C 3.898438 -8.640625 2.171875 -13.097656 2.171875 -18.453125 C 2.171875 -23.804688 3.898438 -28.269531 7.359375 -31.84375 C 10.890625 -35.519531 15.40625 -37.359375 20.90625 -37.359375 Z M 20.90625 -3.625 C 25.300781 -3.625 28.851562 -5.054688 31.5625 -7.921875 C 34.164062 -10.671875 35.46875 -14.179688 35.46875 -18.453125 C 35.46875 -22.734375 34.164062 -26.25 31.5625 -29 C 28.851562 -31.863281 25.300781 -33.296875 20.90625 -33.296875 C 16.519531 -33.296875 12.972656 -31.863281 10.265625 -29 C 7.660156 -26.25 6.359375 -22.734375 6.359375 -18.453125 C 6.359375 -14.179688 7.660156 -10.671875 10.265625 -7.921875 C 12.972656 -5.054688 16.519531 -3.625 20.90625 -3.625 Z M 20.90625 -3.625 "/></g></g></g><g fill="#ffffff" fill-opacity="1"><g transform="translate(114.590459, 72.428092)"><g><path d="M 32.734375 -27.15625 C 32.734375 -23.101562 31.078125 -20.332031 27.765625 -18.84375 C 30.816406 -17.84375 32.898438 -16.003906 34.015625 -13.328125 C 34.421875 -12.285156 34.625 -11.078125 34.625 -9.703125 C 34.625 -5.242188 32.265625 -2.269531 27.546875 -0.78125 C 25.984375 -0.257812 24.144531 0 22.03125 0 L 4.515625 0 L 4.515625 -36.921875 L 21.078125 -36.921875 C 25.054688 -36.921875 28.085938 -35.84375 30.171875 -33.6875 C 31.878906 -31.976562 32.734375 -29.800781 32.734375 -27.15625 Z M 8.703125 -20.40625 L 21.078125 -20.40625 C 24.492188 -20.40625 26.78125 -21.578125 27.9375 -23.921875 C 28.34375 -24.742188 28.546875 -25.628906 28.546875 -26.578125 C 28.546875 -27.523438 28.414062 -28.359375 28.15625 -29.078125 C 27.894531 -29.804688 27.488281 -30.445312 26.9375 -31 C 25.707031 -32.300781 23.90625 -32.953125 21.53125 -32.953125 L 8.703125 -32.953125 Z M 22.46875 -3.953125 C 25.039062 -3.953125 27.015625 -4.484375 28.390625 -5.546875 C 29.765625 -6.609375 30.453125 -8.101562 30.453125 -10.03125 C 30.453125 -11.894531 29.78125 -13.421875 28.4375 -14.609375 C 26.945312 -15.953125 24.8125 -16.625 22.03125 -16.625 L 8.703125 -16.625 L 8.703125 -3.953125 Z M 22.46875 -3.953125 "/></g></g></g><g fill="#ffffff" fill-opacity="1"><g transform="translate(151.501044, 72.428092)"><g><path d="M 8.703125 0 L 4.515625 0 L 4.515625 -36.921875 L 8.703125 -36.921875 Z M 8.703125 0 "/></g></g></g><g fill="#ffffff" fill-opacity="1"><g transform="translate(164.715263, 72.428092)"><g><path d="M 8.703125 -36.921875 L 8.703125 -4.015625 L 28.828125 -4.015625 L 28.828125 0 L 4.515625 0 L 4.515625 -36.921875 Z M 8.703125 -36.921875 "/></g></g></g><g fill="#ffffff" fill-opacity="1"><g transform="translate(194.433309, 72.428092)"><g><path d="M 8.703125 -32.90625 L 8.703125 -20.515625 L 29.21875 -20.515625 L 29.21875 -16.453125 L 8.703125 -16.453125 L 8.703125 -4.015625 L 31.671875 -4.015625 L 31.671875 0 L 4.515625 0 L 4.515625 -36.921875 L 31.671875 -36.921875 L 31.671875 -32.90625 Z M 8.703125 -32.90625 "/></g></g></g><g fill="#ffffff" fill-opacity="1"><g transform="translate(228.333059, 72.428092)"><g/></g></g><g fill="#ffffff" fill-opacity="1"><g transform="translate(240.20914, 72.428092)"><g><path d="M 36.75 0 L 32.125 0 L 27.609375 -10.703125 L 9.3125 -10.703125 L 4.796875 0 L 0.171875 0 L 15.84375 -36.921875 L 21.078125 -36.921875 Z M 25.984375 -14.5625 L 18.453125 -32.5625 L 10.9375 -14.5625 Z M 25.984375 -14.5625 "/></g></g></g><g fill="#ffffff" fill-opacity="1"><g transform="translate(277.119736, 72.428092)"><g><path d="M 8.703125 0 L 4.515625 0 L 4.515625 -36.921875 L 21.140625 -36.921875 C 25.035156 -36.921875 28.140625 -35.84375 30.453125 -33.6875 C 32.710938 -31.53125 33.84375 -28.644531 33.84375 -25.03125 C 33.84375 -21.394531 32.695312 -18.503906 30.40625 -16.359375 C 28.125 -14.222656 25.035156 -13.15625 21.140625 -13.15625 L 8.703125 -13.15625 Z M 8.703125 -32.953125 L 8.703125 -17.0625 L 20.859375 -17.0625 C 23.753906 -17.0625 25.945312 -17.765625 27.4375 -19.171875 C 28.925781 -20.585938 29.671875 -22.53125 29.671875 -25 C 29.671875 -27.476562 28.925781 -29.421875 27.4375 -30.828125 C 25.945312 -32.242188 23.753906 -32.953125 20.859375 -32.953125 Z M 8.703125 -32.953125 "/></g></g></g><g fill="#ffffff" fill-opacity="1"><g transform="translate(312.13462, 72.428092)"><g><path d="M 8.703125 0 L 4.515625 0 L 4.515625 -36.921875 L 21.140625 -36.921875 C 25.035156 -36.921875 28.140625 -35.84375 30.453125 -33.6875 C 32.710938 -31.53125 33.84375 -28.644531 33.84375 -25.03125 C 33.84375 -21.394531 32.695312 -18.503906 30.40625 -16.359375 C 28.125 -14.222656 25.035156 -13.15625 21.140625 -13.15625 L 8.703125 -13.15625 Z M 8.703125 -32.953125 L 8.703125 -17.0625 L 20.859375 -17.0625 C 23.753906 -17.0625 25.945312 -17.765625 27.4375 -19.171875 C 28.925781 -20.585938 29.671875 -22.53125 29.671875 -25 C 29.671875 -27.476562 28.925781 -29.421875 27.4375 -30.828125 C 25.945312 -32.242188 23.753906 -32.953125 20.859375 -32.953125 Z M 8.703125 -32.953125 "/></g></g></g></svg>