<svg xmlns="http://www.w3.org/2000/svg" xmlns:xlink="http://www.w3.org/1999/xlink" width="350" zoomAndPan="magnify" viewBox="0 0 262.5 112.499997" height="150" preserveAspectRatio="xMidYMid meet" version="1.0"><defs><g/><clipPath id="6430a032d4"><path d="M 0.332031 0 L 261.671875 0 L 261.671875 112.003906 L 0.332031 112.003906 Z M 0.332031 0 " clip-rule="nonzero"/></clipPath><clipPath id="62792b2615"><path d="M 24.316406 0 L 237.6875 0 C 250.933594 0 261.671875 10.738281 261.671875 23.984375 L 261.671875 88.019531 C 261.671875 101.265625 250.933594 112.003906 237.6875 112.003906 L 24.316406 112.003906 C 11.070312 112.003906 0.332031 101.265625 0.332031 88.019531 L 0.332031 23.984375 C 0.332031 10.738281 11.070312 0 24.316406 0 Z M 24.316406 0 " clip-rule="nonzero"/></clipPath></defs><g clip-path="url(#6430a032d4)"><g clip-path="url(#62792b2615)"><path fill="#5271ff" d="M 0.332031 0 L 261.671875 0 L 261.671875 112.003906 L 0.332031 112.003906 Z M 0.332031 0 " fill-opacity="1" fill-rule="nonzero"/></g></g><g fill="#ffffff" fill-opacity="1"><g transform="translate(66.637167, 72.428092)"><g><path d="M 17.328125 0 L 12.421875 0 L 0.515625 -38.25 L 5.078125 -38.25 L 14.90625 -6.125 L 25.1875 -38.25 L 30.15625 -38.25 L 40.453125 -6.125 L 50.265625 -38.25 L 54.828125 -38.25 L 42.9375 0 L 38.015625 0 L 27.671875 -32.125 Z M 17.328125 0 "/></g></g></g><g fill="#ffffff" fill-opacity="1"><g transform="translate(121.98506, 72.428092)"><g><path d="M 9.015625 -34.09375 L 9.015625 -21.265625 L 30.28125 -21.265625 L 30.28125 -17.046875 L 9.015625 -17.046875 L 9.015625 -4.15625 L 32.8125 -4.15625 L 32.8125 0 L 4.6875 0 L 4.6875 -38.25 L 32.8125 -38.25 L 32.8125 -34.09375 Z M 9.015625 -34.09375 "/></g></g></g><g fill="#ffffff" fill-opacity="1"><g transform="translate(157.111909, 72.428092)"><g><path d="M 33.921875 -28.140625 C 33.921875 -23.941406 32.207031 -21.070312 28.78125 -19.53125 C 31.9375 -18.488281 34.09375 -16.582031 35.25 -13.8125 C 35.664062 -12.726562 35.875 -11.472656 35.875 -10.046875 C 35.875 -5.429688 33.429688 -2.351562 28.546875 -0.8125 C 26.921875 -0.269531 25.015625 0 22.828125 0 L 4.6875 0 L 4.6875 -38.25 L 21.84375 -38.25 C 25.96875 -38.25 29.109375 -37.132812 31.265625 -34.90625 C 33.035156 -33.125 33.921875 -30.867188 33.921875 -28.140625 Z M 9.015625 -21.140625 L 21.84375 -21.140625 C 25.382812 -21.140625 27.753906 -22.351562 28.953125 -24.78125 C 29.367188 -25.632812 29.578125 -26.550781 29.578125 -27.53125 C 29.578125 -28.507812 29.441406 -29.375 29.171875 -30.125 C 28.910156 -30.882812 28.488281 -31.550781 27.90625 -32.125 C 26.632812 -33.476562 24.765625 -34.15625 22.296875 -34.15625 L 9.015625 -34.15625 Z M 23.28125 -4.109375 C 25.9375 -4.109375 27.976562 -4.65625 29.40625 -5.75 C 30.832031 -6.84375 31.546875 -8.394531 31.546875 -10.40625 C 31.546875 -12.332031 30.851562 -13.910156 29.46875 -15.140625 C 27.925781 -16.523438 25.710938 -17.21875 22.828125 -17.21875 L 9.015625 -17.21875 L 9.015625 -4.109375 Z M 23.28125 -4.109375 "/></g></g></g></svg>